<svg xmlns="http://www.w3.org/2000/svg" style="background-color:transparent" width="323" height="358" viewBox="0 0 323 358" version="1.1"><path d="M 281.500 37 C 281.160 37.550, 278.460 38, 275.500 38 C 272.540 38, 269.871 38.400, 269.568 38.889 C 269.266 39.378, 267.777 40.067, 266.259 40.421 C 263.550 41.051, 255.466 44.755, 253.500 46.266 C 252.950 46.689, 250.564 48.397, 248.199 50.061 C 245.833 51.725, 242.484 55.092, 240.756 57.543 C 239.029 59.994, 237.252 62, 236.807 62 C 236.363 62, 236 62.900, 236 64 C 236 65.100, 235.550 66, 235 66 C 234.450 66, 234 66.800, 234 67.777 C 234 68.755, 233.381 70.443, 232.625 71.527 C 230.125 75.112, 229.778 81.983, 229.136 140.500 C 228.658 184.083, 228.189 199.043, 227.250 200.684 C 226.563 201.886, 225.986 204.136, 225.968 205.684 C 225.951 207.233, 225.276 209.374, 224.468 210.441 C 223.661 211.509, 223 213.196, 223 214.191 C 223 215.186, 222.550 216, 222 216 C 221.450 216, 221 216.675, 221 217.500 C 221 219.350, 221.489 219.365, 224.846 217.620 C 226.306 216.861, 230.088 214.966, 233.250 213.409 C 236.412 211.852, 239 210.333, 239 210.033 C 239 209.733, 240.454 208.845, 242.231 208.058 C 250.050 204.597, 264.878 188.713, 270.524 177.750 C 271.586 175.688, 272.802 174, 273.227 174 C 273.652 174, 274 172.930, 274 171.622 C 274 170.315, 274.675 168.685, 275.500 168 C 276.325 167.315, 277 165.937, 277 164.937 C 277 163.936, 277.450 162.840, 278 162.500 C 278.550 162.160, 279 160.424, 279 158.641 C 279 156.858, 279.529 154.871, 280.176 154.224 C 283.571 150.829, 285.162 123.171, 284.513 78.821 C 284.153 54.210, 284.308 40.928, 284.960 40.525 C 285.605 40.126, 285.526 39.214, 284.739 37.954 C 283.383 35.782, 282.427 35.501, 281.500 37 M 46.586 37.748 C 45.658 38.676, 46.030 121.365, 47.015 133 C 48.081 145.595, 49.558 153.958, 50.966 155.366 C 51.535 155.935, 52 157.441, 52 158.714 C 52 161.028, 52.211 161.605, 55.331 167.831 C 56.249 169.663, 57 171.801, 57 172.581 C 57 173.361, 57.450 174, 58 174 C 58.550 174, 59 174.914, 59 176.031 C 59 177.149, 59.675 178.322, 60.500 178.638 C 61.325 178.955, 62 180.066, 62 181.107 C 62 182.148, 62.353 183, 62.784 183 C 63.216 183, 64.416 184.463, 65.451 186.250 C 68.540 191.586, 83.772 205.941, 90.176 209.552 C 95.907 212.784, 108.397 219, 109.159 219 C 109.621 219, 110 218.325, 110 217.500 C 110 216.675, 109.550 216, 109 216 C 108.450 216, 108 215.506, 108 214.901 C 108 214.297, 107.363 212.384, 106.584 210.651 C 105.805 208.918, 104.925 206.150, 104.629 204.500 C 104.332 202.850, 103.657 199.250, 103.129 196.500 C 102.598 193.733, 102.120 167.224, 102.060 137.139 C 101.994 103.933, 101.572 82.068, 100.976 80.955 C 100.439 79.952, 100 78.196, 100 77.054 C 100 72.407, 92.611 59.574, 86.304 53.267 C 82.857 49.820, 79.560 47, 78.977 47 C 78.394 47, 76.950 46.100, 75.770 45 C 74.589 43.900, 72.834 43, 71.870 43 C 70.907 43, 69.866 42.592, 69.557 42.092 C 68.182 39.867, 48.238 36.095, 46.586 37.748 M 45.432 170.750 C 45.790 172.813, 46.327 181.697, 46.625 190.493 C 46.923 199.288, 47.534 206.713, 47.982 206.993 C 48.430 207.272, 49.120 210.088, 49.514 213.250 C 49.908 216.412, 50.629 219, 51.115 219 C 51.602 219, 52.014 220.463, 52.032 222.250 C 52.049 224.037, 52.724 226.374, 53.532 227.441 C 54.339 228.509, 55 230.196, 55 231.191 C 55 232.186, 55.450 233, 56 233 C 56.550 233, 57.033 233.787, 57.073 234.750 C 57.113 235.713, 58.007 237.850, 59.058 239.500 C 60.110 241.150, 61.384 243.400, 61.889 244.500 C 62.394 245.600, 63.751 247.494, 64.904 248.708 C 66.057 249.923, 67 251.210, 67 251.569 C 67 252.886, 85.227 270, 86.629 270 C 87.004 270, 88.786 271.125, 90.589 272.500 C 92.392 273.875, 94.534 275, 95.350 275 C 96.166 275, 96.983 275.391, 97.167 275.868 C 97.350 276.345, 98.442 277.028, 99.594 277.386 C 101.096 277.852, 102.650 277.188, 105.094 275.034 C 108.437 272.087, 115 270.727, 115 272.981 C 115 273.520, 116.125 274.244, 117.500 274.589 C 118.875 274.934, 120 275.618, 120 276.108 C 120 277.726, 122.046 277.038, 124.783 274.500 C 127.910 271.601, 134.398 270.988, 135.362 273.500 C 135.678 274.325, 136.611 275, 137.433 275 C 138.256 275, 139.408 275.895, 139.994 276.988 C 140.579 278.082, 142.252 279.276, 143.712 279.643 C 149.607 281.122, 154.850 284.930, 155.329 288.080 C 155.534 289.425, 156.500 290.657, 157.505 290.853 C 159.672 291.277, 165.399 296.769, 166.325 299.313 C 166.689 300.311, 167.410 300.865, 167.928 300.544 C 168.447 300.224, 169.922 300.983, 171.206 302.231 C 173.636 304.591, 183.699 310.043, 185.576 310.016 C 186.998 309.995, 191 305.694, 191 304.186 C 191 303.533, 190.325 303, 189.500 303 C 188.675 303, 188 302.550, 188 302 C 188 301.450, 187.556 301, 187.013 301 C 184.971 301, 178.074 295.429, 178.038 293.750 C 177.984 291.284, 179.420 291.568, 183.215 294.776 C 189.251 299.876, 196.217 302.506, 199.033 300.747 C 203.266 298.104, 201.022 293.564, 192.969 288.480 C 187.390 284.959, 183 280.626, 183 278.642 C 183 276.154, 184.185 276.624, 188.833 280.958 C 191.167 283.134, 194.859 285.917, 197.038 287.142 C 199.217 288.366, 201 289.735, 201 290.184 C 201 290.633, 202.141 291, 203.535 291 C 206.343 291, 211 288.345, 211 286.745 C 211 284.739, 177.729 254.004, 175.555 254.001 C 175.035 254.001, 173.353 252.796, 171.817 251.325 C 169.240 248.856, 168.823 248.757, 166.425 250.040 C 164.995 250.805, 161.277 254.028, 158.163 257.202 L 152.500 262.973 144.250 262.986 C 139.408 262.994, 136 262.587, 136 262 C 136 261.450, 135.361 261, 134.579 261 C 131.478 261, 131.759 255.451, 135.193 248.853 C 137.012 245.359, 138.838 242.350, 139.250 242.167 C 139.662 241.983, 140 241.009, 140 240.002 C 140 237.728, 148.609 230, 151.141 230 C 152.163 230, 153 229.550, 153 229 C 153 228.450, 154.125 228, 155.500 228 C 159.023 228, 158.605 226.659, 154.466 224.685 C 150.119 222.612, 148.249 222.580, 143.654 224.500 C 141.680 225.325, 138.925 226, 137.532 226 C 136.139 226, 135 226.412, 135 226.915 C 135 227.418, 131.963 228.066, 128.250 228.355 C 124.537 228.644, 121.050 228.926, 120.500 228.981 C 119.950 229.035, 118.150 228.803, 116.500 228.465 C 113.652 227.880, 112.613 227.509, 105.500 224.535 C 97.701 221.274, 96.269 220.617, 93 218.808 C 91.075 217.743, 88.713 216.623, 87.750 216.319 C 86.787 216.015, 86 215.369, 86 214.883 C 86 214.398, 85.572 214, 85.048 214 C 82.929 214, 70.773 204.554, 67.262 200.179 C 65.197 197.605, 62.493 194.586, 61.254 193.468 C 60.014 192.351, 59 190.888, 59 190.218 C 59 189.548, 58.550 189, 58 189 C 57.450 189, 57 188.373, 57 187.607 C 57 186.841, 56.325 185.955, 55.500 185.638 C 54.675 185.322, 54 184.186, 54 183.115 C 54 182.043, 53.663 181.017, 53.250 180.833 C 52.068 180.308, 49 174.361, 49 172.596 C 49 171.718, 48.550 171, 48 171 C 47.450 171, 47 170.100, 47 169 C 47 167.900, 46.501 167, 45.891 167 C 45.160 167, 45.003 168.279, 45.432 170.750 M 285.136 167.679 C 285.061 168.327, 284.301 169.556, 283.446 170.411 C 282.591 171.266, 281.727 172.822, 281.525 173.869 C 280.961 176.796, 270.841 191.870, 265.462 197.794 C 260.838 202.888, 249.653 212.303, 245.500 214.600 C 236.923 219.343, 233.518 221, 232.351 221 C 231.608 221, 231 221.450, 231 222 C 231 222.550, 230.319 223, 229.486 223 C 228.654 223, 227.191 223.384, 226.236 223.853 C 221.481 226.189, 217.208 227.910, 214.500 228.583 C 209.819 229.744, 194.368 229.497, 185 228.111 C 180.325 227.419, 174.773 226.610, 172.663 226.313 C 170.447 226.001, 168.356 226.244, 167.713 226.887 C 167.101 227.499, 166.077 228, 165.437 228 C 164.798 228, 160.214 230.260, 155.251 233.021 C 146.975 237.627, 146.053 238.450, 144.111 242.964 C 142.946 245.671, 141.545 248.163, 140.997 248.502 C 140.449 248.841, 140 249.991, 140 251.059 C 140 252.127, 139.550 253, 139 253 C 138.450 253, 138 254.125, 138 255.500 C 138 257.631, 138.480 258.016, 141.250 258.111 C 150.751 258.434, 152.926 257.360, 157.921 249.880 C 160.618 245.841, 162.062 244.462, 162.809 245.209 C 163.556 245.956, 165.076 245.787, 167.955 244.635 C 173.058 242.593, 173 242.588, 173 245 C 173 246.100, 173.365 247, 173.811 247 C 174.258 247, 175.495 247.790, 176.561 248.756 C 177.628 249.721, 181.650 252.960, 185.500 255.953 C 194.862 263.231, 205.018 272.700, 212.042 280.701 C 214.158 283.111, 215.457 283.882, 216.295 283.223 C 216.958 282.702, 218.850 281.952, 220.500 281.557 C 222.150 281.162, 226.193 279.524, 229.485 277.919 C 232.777 276.314, 235.961 275, 236.561 275 C 237.161 275, 238.708 273.875, 240 272.500 C 241.292 271.125, 242.942 270, 243.667 270 C 247.283 270, 269 247.343, 269 243.571 C 269 242.707, 269.441 242, 269.981 242 C 270.520 242, 271.244 240.875, 271.589 239.500 C 271.934 238.125, 272.618 237, 273.108 237 C 273.599 237, 274 236.361, 274 235.581 C 274 234.801, 274.633 232.888, 275.407 231.331 C 276.780 228.570, 277.330 227.211, 279.994 220 C 280.705 218.075, 281.495 214.475, 281.750 212 C 282.006 209.525, 282.580 207.048, 283.027 206.495 C 283.473 205.942, 283.987 198.067, 284.169 188.995 C 284.351 179.923, 284.877 172.224, 285.337 171.887 C 285.798 171.550, 285.972 170.200, 285.724 168.887 C 285.475 167.574, 285.211 167.030, 285.136 167.679 M 106.964 278.869 C 106.120 279.805, 104.207 282.173, 102.714 284.130 C 99.705 288.075, 99.817 288.332, 106.304 292.371 C 107.846 293.331, 109.399 294.878, 109.755 295.808 C 110.819 298.586, 114.306 300.931, 117.427 300.967 C 119.452 300.990, 121.152 301.955, 122.939 304.096 C 124.956 306.512, 126.552 307.308, 130.206 307.720 C 132.781 308.010, 135.713 309.015, 136.720 309.954 C 137.727 310.892, 139.725 312.429, 141.159 313.369 C 143.617 314.979, 144.018 314.979, 148.133 313.374 C 152.841 311.537, 161 304.142, 161 301.711 C 161 300.892, 160.170 299.197, 159.156 297.944 C 156.770 294.997, 152.048 294.946, 148.949 297.833 C 144.716 301.777, 143.457 300.143, 147.428 295.861 C 151.383 291.595, 151.224 288.154, 146.954 285.632 C 143.925 283.842, 143.889 283.848, 140.341 286.666 C 134.738 291.117, 134.138 291.472, 133.429 290.762 C 133.062 290.395, 133.493 289.364, 134.388 288.470 C 137.873 284.984, 138.333 282.924, 136.253 280.125 C 133.618 276.579, 129.491 276.180, 126.682 279.201 C 124.198 281.872, 119.934 285, 118.777 285 C 118.350 285, 118 284.178, 118 283.174 C 118 280.587, 113.821 276.985, 110.936 277.083 C 109.596 277.129, 107.809 277.933, 106.964 278.869 M 165.293 304.750 C 164.939 305.712, 163.631 307.465, 162.386 308.645 C 159.865 311.035, 160.216 312, 163.608 312 C 164.859 312, 166.124 312.392, 166.420 312.871 C 167.527 314.661, 173.284 315.044, 175.664 313.485 C 176.949 312.643, 178 311.609, 178 311.187 C 178 310.765, 175.750 309.106, 173 307.500 C 170.250 305.894, 168 304.224, 168 303.790 C 168 302.278, 165.933 303.012, 165.293 304.750" stroke="none" fill="#0e98da" fill-rule="evenodd"/><path d="M 0 179.003 L 0 358.006 161.750 357.753 L 323.500 357.500 323.753 178.750 L 324.005 -0 162.003 -0 L 0 0 0 179.003 M 0.489 179.500 C 0.489 277.950, 0.607 318.077, 0.750 268.671 C 0.893 219.265, 0.893 138.715, 0.750 89.671 C 0.606 40.627, 0.489 81.050, 0.489 179.500 M 281.500 37 C 281.160 37.550, 278.460 38, 275.500 38 C 272.540 38, 269.871 38.400, 269.568 38.889 C 269.266 39.378, 267.777 40.067, 266.259 40.421 C 263.550 41.051, 255.466 44.755, 253.500 46.266 C 252.950 46.689, 250.564 48.397, 248.199 50.061 C 245.833 51.725, 242.484 55.092, 240.756 57.543 C 239.029 59.994, 237.252 62, 236.807 62 C 236.363 62, 236 62.900, 236 64 C 236 65.100, 235.550 66, 235 66 C 234.450 66, 234 66.800, 234 67.777 C 234 68.755, 233.381 70.443, 232.625 71.527 C 230.125 75.112, 229.778 81.983, 229.136 140.500 C 228.658 184.083, 228.189 199.043, 227.250 200.684 C 226.563 201.886, 225.986 204.136, 225.968 205.684 C 225.951 207.233, 225.276 209.374, 224.468 210.441 C 223.661 211.509, 223 213.196, 223 214.191 C 223 215.186, 222.550 216, 222 216 C 221.450 216, 221 216.675, 221 217.500 C 221 219.350, 221.489 219.365, 224.846 217.620 C 226.306 216.861, 230.088 214.966, 233.250 213.409 C 236.412 211.852, 239 210.333, 239 210.033 C 239 209.733, 240.454 208.845, 242.231 208.058 C 250.050 204.597, 264.878 188.713, 270.524 177.750 C 271.586 175.688, 272.802 174, 273.227 174 C 273.652 174, 274 172.930, 274 171.622 C 274 170.315, 274.675 168.685, 275.500 168 C 276.325 167.315, 277 165.937, 277 164.937 C 277 163.936, 277.450 162.840, 278 162.500 C 278.550 162.160, 279 160.424, 279 158.641 C 279 156.858, 279.529 154.871, 280.176 154.224 C 283.571 150.829, 285.162 123.171, 284.513 78.821 C 284.153 54.210, 284.308 40.928, 284.960 40.525 C 285.605 40.126, 285.526 39.214, 284.739 37.954 C 283.383 35.782, 282.427 35.501, 281.500 37 M 46.586 37.748 C 45.658 38.676, 46.030 121.365, 47.015 133 C 48.081 145.595, 49.558 153.958, 50.966 155.366 C 51.535 155.935, 52 157.441, 52 158.714 C 52 161.028, 52.211 161.605, 55.331 167.831 C 56.249 169.663, 57 171.801, 57 172.581 C 57 173.361, 57.450 174, 58 174 C 58.550 174, 59 174.914, 59 176.031 C 59 177.149, 59.675 178.322, 60.500 178.638 C 61.325 178.955, 62 180.066, 62 181.107 C 62 182.148, 62.353 183, 62.784 183 C 63.216 183, 64.416 184.463, 65.451 186.250 C 68.540 191.586, 83.772 205.941, 90.176 209.552 C 95.907 212.784, 108.397 219, 109.159 219 C 109.621 219, 110 218.325, 110 217.500 C 110 216.675, 109.550 216, 109 216 C 108.450 216, 108 215.506, 108 214.901 C 108 214.297, 107.363 212.384, 106.584 210.651 C 105.805 208.918, 104.925 206.150, 104.629 204.500 C 104.332 202.850, 103.657 199.250, 103.129 196.500 C 102.598 193.733, 102.120 167.224, 102.060 137.139 C 101.994 103.933, 101.572 82.068, 100.976 80.955 C 100.439 79.952, 100 78.196, 100 77.054 C 100 72.407, 92.611 59.574, 86.304 53.267 C 82.857 49.820, 79.560 47, 78.977 47 C 78.394 47, 76.950 46.100, 75.770 45 C 74.589 43.900, 72.834 43, 71.870 43 C 70.907 43, 69.866 42.592, 69.557 42.092 C 68.182 39.867, 48.238 36.095, 46.586 37.748 M 45.432 170.750 C 45.790 172.813, 46.327 181.697, 46.625 190.493 C 46.923 199.288, 47.534 206.713, 47.982 206.993 C 48.430 207.272, 49.120 210.088, 49.514 213.250 C 49.908 216.412, 50.629 219, 51.115 219 C 51.602 219, 52.014 220.463, 52.032 222.250 C 52.049 224.037, 52.724 226.374, 53.532 227.441 C 54.339 228.509, 55 230.196, 55 231.191 C 55 232.186, 55.450 233, 56 233 C 56.550 233, 57.033 233.787, 57.073 234.750 C 57.113 235.713, 58.007 237.850, 59.058 239.500 C 60.110 241.150, 61.384 243.400, 61.889 244.500 C 62.394 245.600, 63.751 247.494, 64.904 248.708 C 66.057 249.923, 67 251.210, 67 251.569 C 67 252.886, 85.227 270, 86.629 270 C 87.004 270, 88.786 271.125, 90.589 272.500 C 92.392 273.875, 94.534 275, 95.350 275 C 96.166 275, 96.983 275.391, 97.167 275.868 C 97.350 276.345, 98.442 277.028, 99.594 277.386 C 101.096 277.852, 102.650 277.188, 105.094 275.034 C 108.437 272.087, 115 270.727, 115 272.981 C 115 273.520, 116.125 274.244, 117.500 274.589 C 118.875 274.934, 120 275.618, 120 276.108 C 120 277.726, 122.046 277.038, 124.783 274.500 C 127.910 271.601, 134.398 270.988, 135.362 273.500 C 135.678 274.325, 136.611 275, 137.433 275 C 138.256 275, 139.408 275.895, 139.994 276.988 C 140.579 278.082, 142.252 279.276, 143.712 279.643 C 149.607 281.122, 154.850 284.930, 155.329 288.080 C 155.534 289.425, 156.500 290.657, 157.505 290.853 C 159.672 291.277, 165.399 296.769, 166.325 299.313 C 166.689 300.311, 167.410 300.865, 167.928 300.544 C 168.447 300.224, 169.922 300.983, 171.206 302.231 C 173.636 304.591, 183.699 310.043, 185.576 310.016 C 186.998 309.995, 191 305.694, 191 304.186 C 191 303.533, 190.325 303, 189.500 303 C 188.675 303, 188 302.550, 188 302 C 188 301.450, 187.556 301, 187.013 301 C 184.971 301, 178.074 295.429, 178.038 293.750 C 177.984 291.284, 179.420 291.568, 183.215 294.776 C 189.251 299.876, 196.217 302.506, 199.033 300.747 C 203.266 298.104, 201.022 293.564, 192.969 288.480 C 187.390 284.959, 183 280.626, 183 278.642 C 183 276.154, 184.185 276.624, 188.833 280.958 C 191.167 283.134, 194.859 285.917, 197.038 287.142 C 199.217 288.366, 201 289.735, 201 290.184 C 201 290.633, 202.141 291, 203.535 291 C 206.343 291, 211 288.345, 211 286.745 C 211 284.739, 177.729 254.004, 175.555 254.001 C 175.035 254.001, 173.353 252.796, 171.817 251.325 C 169.240 248.856, 168.823 248.757, 166.425 250.040 C 164.995 250.805, 161.277 254.028, 158.163 257.202 L 152.500 262.973 144.250 262.986 C 139.408 262.994, 136 262.587, 136 262 C 136 261.450, 135.361 261, 134.579 261 C 131.478 261, 131.759 255.451, 135.193 248.853 C 137.012 245.359, 138.838 242.350, 139.250 242.167 C 139.662 241.983, 140 241.009, 140 240.002 C 140 237.728, 148.609 230, 151.141 230 C 152.163 230, 153 229.550, 153 229 C 153 228.450, 154.125 228, 155.500 228 C 159.023 228, 158.605 226.659, 154.466 224.685 C 150.119 222.612, 148.249 222.580, 143.654 224.500 C 141.680 225.325, 138.925 226, 137.532 226 C 136.139 226, 135 226.412, 135 226.915 C 135 227.418, 131.963 228.066, 128.250 228.355 C 124.537 228.644, 121.050 228.926, 120.500 228.981 C 119.950 229.035, 118.150 228.803, 116.500 228.465 C 113.652 227.880, 112.613 227.509, 105.500 224.535 C 97.701 221.274, 96.269 220.617, 93 218.808 C 91.075 217.743, 88.713 216.623, 87.750 216.319 C 86.787 216.015, 86 215.369, 86 214.883 C 86 214.398, 85.572 214, 85.048 214 C 82.929 214, 70.773 204.554, 67.262 200.179 C 65.197 197.605, 62.493 194.586, 61.254 193.468 C 60.014 192.351, 59 190.888, 59 190.218 C 59 189.548, 58.550 189, 58 189 C 57.450 189, 57 188.373, 57 187.607 C 57 186.841, 56.325 185.955, 55.500 185.638 C 54.675 185.322, 54 184.186, 54 183.115 C 54 182.043, 53.663 181.017, 53.250 180.833 C 52.068 180.308, 49 174.361, 49 172.596 C 49 171.718, 48.550 171, 48 171 C 47.450 171, 47 170.100, 47 169 C 47 167.900, 46.501 167, 45.891 167 C 45.160 167, 45.003 168.279, 45.432 170.750 M 285.136 167.679 C 285.061 168.327, 284.301 169.556, 283.446 170.411 C 282.591 171.266, 281.727 172.822, 281.525 173.869 C 280.961 176.796, 270.841 191.870, 265.462 197.794 C 260.838 202.888, 249.653 212.303, 245.500 214.600 C 236.923 219.343, 233.518 221, 232.351 221 C 231.608 221, 231 221.450, 231 222 C 231 222.550, 230.319 223, 229.486 223 C 228.654 223, 227.191 223.384, 226.236 223.853 C 221.481 226.189, 217.208 227.910, 214.500 228.583 C 209.819 229.744, 194.368 229.497, 185 228.111 C 180.325 227.419, 174.773 226.610, 172.663 226.313 C 170.447 226.001, 168.356 226.244, 167.713 226.887 C 167.101 227.499, 166.077 228, 165.437 228 C 164.798 228, 160.214 230.260, 155.251 233.021 C 146.975 237.627, 146.053 238.450, 144.111 242.964 C 142.946 245.671, 141.545 248.163, 140.997 248.502 C 140.449 248.841, 140 249.991, 140 251.059 C 140 252.127, 139.550 253, 139 253 C 138.450 253, 138 254.125, 138 255.500 C 138 257.631, 138.480 258.016, 141.250 258.111 C 150.751 258.434, 152.926 257.360, 157.921 249.880 C 160.618 245.841, 162.062 244.462, 162.809 245.209 C 163.556 245.956, 165.076 245.787, 167.955 244.635 C 173.058 242.593, 173 242.588, 173 245 C 173 246.100, 173.365 247, 173.811 247 C 174.258 247, 175.495 247.790, 176.561 248.756 C 177.628 249.721, 181.650 252.960, 185.500 255.953 C 194.862 263.231, 205.018 272.700, 212.042 280.701 C 214.158 283.111, 215.457 283.882, 216.295 283.223 C 216.958 282.702, 218.850 281.952, 220.500 281.557 C 222.150 281.162, 226.193 279.524, 229.485 277.919 C 232.777 276.314, 235.961 275, 236.561 275 C 237.161 275, 238.708 273.875, 240 272.500 C 241.292 271.125, 242.942 270, 243.667 270 C 247.283 270, 269 247.343, 269 243.571 C 269 242.707, 269.441 242, 269.981 242 C 270.520 242, 271.244 240.875, 271.589 239.500 C 271.934 238.125, 272.618 237, 273.108 237 C 273.599 237, 274 236.361, 274 235.581 C 274 234.801, 274.633 232.888, 275.407 231.331 C 276.780 228.570, 277.330 227.211, 279.994 220 C 280.705 218.075, 281.495 214.475, 281.750 212 C 282.006 209.525, 282.580 207.048, 283.027 206.495 C 283.473 205.942, 283.987 198.067, 284.169 188.995 C 284.351 179.923, 284.877 172.224, 285.337 171.887 C 285.798 171.550, 285.972 170.200, 285.724 168.887 C 285.475 167.574, 285.211 167.030, 285.136 167.679 M 106.964 278.869 C 106.120 279.805, 104.207 282.173, 102.714 284.130 C 99.705 288.075, 99.817 288.332, 106.304 292.371 C 107.846 293.331, 109.399 294.878, 109.755 295.808 C 110.819 298.586, 114.306 300.931, 117.427 300.967 C 119.452 300.990, 121.152 301.955, 122.939 304.096 C 124.956 306.512, 126.552 307.308, 130.206 307.720 C 132.781 308.010, 135.713 309.015, 136.720 309.954 C 137.727 310.892, 139.725 312.429, 141.159 313.369 C 143.617 314.979, 144.018 314.979, 148.133 313.374 C 152.841 311.537, 161 304.142, 161 301.711 C 161 300.892, 160.170 299.197, 159.156 297.944 C 156.770 294.997, 152.048 294.946, 148.949 297.833 C 144.716 301.777, 143.457 300.143, 147.428 295.861 C 151.383 291.595, 151.224 288.154, 146.954 285.632 C 143.925 283.842, 143.889 283.848, 140.341 286.666 C 134.738 291.117, 134.138 291.472, 133.429 290.762 C 133.062 290.395, 133.493 289.364, 134.388 288.470 C 137.873 284.984, 138.333 282.924, 136.253 280.125 C 133.618 276.579, 129.491 276.180, 126.682 279.201 C 124.198 281.872, 119.934 285, 118.777 285 C 118.350 285, 118 284.178, 118 283.174 C 118 280.587, 113.821 276.985, 110.936 277.083 C 109.596 277.129, 107.809 277.933, 106.964 278.869 M 165.293 304.750 C 164.939 305.712, 163.631 307.465, 162.386 308.645 C 159.865 311.035, 160.216 312, 163.608 312 C 164.859 312, 166.124 312.392, 166.420 312.871 C 167.527 314.661, 173.284 315.044, 175.664 313.485 C 176.949 312.643, 178 311.609, 178 311.187 C 178 310.765, 175.750 309.106, 173 307.500 C 170.250 305.894, 168 304.224, 168 303.790 C 168 302.278, 165.933 303.012, 165.293 304.750" stroke="none" fill="transparent" fill-rule="evenodd"/></svg>